<svg width="680" height="190" viewBox="0 0 680 190" role="img" xmlns="http://www.w3.org/2000/svg">
<title>ATLAS</title>
<desc>A blue turnstile, the word ATLAS (Gelasio outlines) with the second A rotated 180 degrees, and a blue hollow QED box. Font-independent.</desc>
<style>
  .ts   { stroke:#2563eb; stroke-width:12; stroke-linecap:round; fill:none; }
  .word { fill:#111111; }
  .qed  { stroke:#2563eb; stroke-width:4.5; fill:none; stroke-linejoin:miter; }
  @media (prefers-color-scheme:dark){
    .ts  { stroke:#60a5fa; }
    .word{ fill:#f5f5f5; }
    .qed { stroke:#60a5fa; }
  }
</style>

<path class="ts" d="M150 66 V128 M150 97 H188"/>

<path class="word" d="M206.17972946166992 128.0Q205.49222946166992 128.0 205.10551071166992 127.333984375Q204.71879196166992 126.66796875 204.71879196166992 125.80859375Q204.71879196166992 124.8203125 205.04105758666992 124.5625Q205.36332321166992 124.3046875 206.26566696166992 124.21875Q207.33988571166992 124.08984375 208.60746383666992 124.06432974338531Q209.87504196166992 124.03881573677063 211.01371383666992 123.41736967432989Q212.15238571166992 122.79592361188915 212.83988571166992 120.91015625L232.69687700271606 66.08203125H240.16826248168945L259.53113412857056 120.91015625Q260.2266933917999 122.80884051322937 261.36402904987335 123.43188738822937Q262.5013647079468 124.05493426322937 263.7850613594055 124.07238900661469Q265.06875801086426 124.08984375 266.10000801086426 124.21875Q267.00235176086426 124.3046875 267.32461738586426 124.5625Q267.64688301086426 124.8203125 267.64688301086426 125.80859375Q267.64688301086426 126.28125 267.28164863586426 127.140625Q266.91641426086426 128.0 266.18594551086426 128.0H243.6853734815263Q242.95296216011047 128.0 242.58772778511047 127.140625Q242.22249341011047 126.28125 242.22249341011047 125.80859375Q242.22249341011047 124.390625 243.64046216011047 124.21875Q246.24543738365173 124.08984375 247.84601283073425 124.00793588161469Q249.44658827781677 123.92602801322937 249.44658827781677 122.94392553170522Q249.44658827781677 122.64502477645874 249.31768202781677 122.328125L243.49272298812866 105.12726283073425L245.99025535583496 106.91044497489929L221.62434363365173 106.90238571166992L224.0869665145874 105.04667019844055L218.21097946166992 122.328125Q218.11698269844055 122.55908727645874 218.11698269844055 122.85180926322937Q218.11698269844055 123.91796875 219.94718420505524 123.98645150661469Q221.77738571166992 124.05493426322937 224.39847946166992 124.22277963161469Q225.81644821166992 124.390625 225.81644821166992 125.80859375Q225.81644821166992 126.28125 225.45121383666992 127.140625Q225.08597946166992 128.0 224.35551071166992 128.0ZM224.19440937042236 104.78071451187134 222.97520780563354 103.21513247489929H244.67701506614685L243.37989330291748 104.78877377510071L234.30012488365173 76.97191596031189Z"/>
<path class="word" d="M284.31447410583496 128.0Q283.58400535583496 128.0 283.21877098083496 127.140625Q282.85353660583496 126.28125 282.85353660583496 125.80859375Q282.85353660583496 124.390625 284.27150535583496 124.21875Q286.29103660583496 124.08984375 288.33205223083496 123.767578125Q290.37306785583496 123.4453125 291.73061311244965 122.607421875Q293.08815836906433 121.76953125 293.08815836906433 120.1796875L293.12306785583496 71.28125H282.24124240875244Q280.3900856706831 71.28125 279.1846812831031 73.0Q277.97927689552307 74.71875 277.2622332572937 77.146484375Q276.54518961906433 79.57421875 276.2165614178306 81.80859375Q275.8879332165969 84.04296875 275.80029902960126 85.07421875Q275.7126648426056 85.890625 275.2238690853119 86.19140625Q274.7350733280182 86.4921875 274.0494696252486 86.4921875Q273.57811707959456 86.4921875 272.69968733542106 86.126953125Q271.82125759124756 85.76171875 271.8561670780182 85.03125Q271.9387112040269 82.92578125 272.0831634245421 79.896484375Q272.22761564505726 76.8671875 272.433975960079 73.923828125Q272.6403362751007 70.98046875 272.85266150534153 69.00390625Q273.06498673558235 67.02734375 273.31977701187134 67.02734375H322.7208549976349Q322.9756452739239 67.02734375 323.1879705041647 69.00390625Q323.4002957344055 70.98046875 323.6084234317144 73.923828125Q323.81655112902325 76.8671875 323.96224051713943 79.896484375Q324.1079299052556 82.92578125 324.1495554447174 85.03125Q324.1495554447174 85.76171875 323.2901804447174 86.126953125Q322.4308054447174 86.4921875 321.9581491947174 86.4921875Q321.2706491947174 86.4921875 320.7818534374237 86.19140625Q320.29305768013 85.890625 320.2030905485153 85.07421875Q320.11312341690063 84.04296875 319.7857135813287 81.80859375Q319.4583037457568 79.57421875 318.75982942986997 77.146484375Q318.06135511398315 74.71875 316.85595072640314 73.0Q315.6505463388231 71.28125 313.7993896007538 71.28125H303.0572440624237L303.0223345756531 120.05078125Q303.0223345756531 121.8984375 304.4617877006531 122.736328125Q305.9012408256531 123.57421875 307.9422564506531 123.83203125Q309.9832720756531 124.08984375 311.7020220756531 124.21875Q312.6043658256531 124.3046875 312.9266314506531 124.5625Q313.2488970756531 124.8203125 313.2488970756531 125.80859375Q313.2488970756531 126.28125 312.8836627006531 127.140625Q312.5184283256531 128.0 311.7879595756531 128.0Z"/>
<path class="word" d="M336.7788243293762 128.0Q336.0483555793762 128.0 335.6831212043762 127.140625Q335.3178868293762 126.28125 335.3178868293762 125.80859375Q335.3178868293762 124.38256573677063 336.7358555793762 124.21875Q338.7983555793762 124.03881573677063 340.70779252052307 123.42247092723846Q342.6172294616699 122.8061261177063 342.6172294616699 121.39045404893747L342.65213894844055 74.97356985475939Q342.65213894844055 73.12890625 341.66385769844055 72.30847036838531Q340.67557644844055 71.48803448677063 339.2589439153671 71.20873761177063Q337.8423113822937 70.92944073677063 336.46998381614685 70.80859375Q335.56764006614685 70.72265625 335.24537444114685 70.443359375Q334.92310881614685 70.1640625 334.92310881614685 69.21875Q334.92310881614685 68.74609375 335.28834319114685 67.88671875Q335.65357756614685 67.02734375 336.38404631614685 67.02734375H359.8132083415985Q360.5436770915985 67.02734375 360.9089114665985 67.88671875Q361.2741458415985 68.74609375 361.2741458415985 69.21875Q361.2741458415985 70.80859375 359.8561770915985 70.80859375Q358.2447860240936 70.80859375 356.53676772117615 71.15234375Q354.82874941825867 71.49609375 353.6712865829468 72.376953125Q352.5138237476349 73.2578125 352.5138237476349 74.84765625L352.47891426086426 120.39453125Q352.47891426086426 122.5 353.8753776550293 123.080078125Q355.27184104919434 123.66015625 356.86168479919434 123.66015625H369.01912665367126Q371.03865790367126 123.66015625 372.9319763183594 121.318359375Q374.8252947330475 118.9765625 376.4003771543503 115.58203125Q377.9754595756531 112.1875 379.0067095756531 109.09375Q379.2645220756531 108.3203125 379.9480344057083 107.998046875Q380.63154673576355 107.67578125 381.31904673576355 107.67578125Q382.13545298576355 107.67578125 382.6980973482132 108.041015625Q383.26074171066284 108.40625 383.17480421066284 109.13671875L380.98874282836914 128.0Z"/>
<g transform="rotate(180 420 97)"><path class="word" d="M390.1797294616699 128.0Q389.4922294616699 128.0 389.1055107116699 127.333984375Q388.7187919616699 126.66796875 388.7187919616699 125.80859375Q388.7187919616699 124.8203125 389.0410575866699 124.5625Q389.3633232116699 124.3046875 390.2656669616699 124.21875Q391.3398857116699 124.08984375 392.6074638366699 124.06432974338531Q393.8750419616699 124.03881573677063 395.0137138366699 123.41736967432989Q396.1523857116699 122.79592361188915 396.8398857116699 120.91015625L416.69687700271606 66.08203125H424.16826248168945L443.53113412857056 120.91015625Q444.2266933917999 122.80884051322937 445.36402904987335 123.43188738822937Q446.5013647079468 124.05493426322937 447.7850613594055 124.07238900661469Q449.06875801086426 124.08984375 450.10000801086426 124.21875Q451.00235176086426 124.3046875 451.32461738586426 124.5625Q451.64688301086426 124.8203125 451.64688301086426 125.80859375Q451.64688301086426 126.28125 451.28164863586426 127.140625Q450.91641426086426 128.0 450.18594551086426 128.0H427.6853734815263Q426.9529621601105 128.0 426.5877277851105 127.140625Q426.2224934101105 126.28125 426.2224934101105 125.80859375Q426.2224934101105 124.390625 427.6404621601105 124.21875Q430.24543738365173 124.08984375 431.84601283073425 124.00793588161469Q433.4465882778168 123.92602801322937 433.4465882778168 122.94392553170522Q433.4465882778168 122.64502477645874 433.3176820278168 122.328125L427.49272298812866 105.12726283073425L429.99025535583496 106.91044497489929L405.62434363365173 106.90238571166992L408.0869665145874 105.04667019844055L402.2109794616699 122.328125Q402.11698269844055 122.55908727645874 402.11698269844055 122.85180926322937Q402.11698269844055 123.91796875 403.94718420505524 123.98645150661469Q405.7773857116699 124.05493426322937 408.3984794616699 124.22277963161469Q409.8164482116699 124.390625 409.8164482116699 125.80859375Q409.8164482116699 126.28125 409.4512138366699 127.140625Q409.0859794616699 128.0 408.3555107116699 128.0ZM408.19440937042236 104.78071451187134 406.97520780563354 103.21513247489929H428.67701506614685L427.3798933029175 104.78877377510071L418.30012488365173 76.97191596031189Z"/></g>
<path class="word" d="M482.1513407230377 129.2890625Q477.14546036720276 129.2890625 474.3014006614685 128.04296875Q471.45734095573425 126.796875 469.9883441925049 126.09864330291748Q468.7852191925049 125.48634910583496 468.0399891138077 125.03384101390839Q467.2947590351105 124.58133292198181 466.6045866012573 124.58133292198181Q466.2554497718811 124.58133292198181 465.9076701402664 124.76799023151398Q465.55989050865173 124.95464754104614 465.2322590351105 125.36015725135803Q464.43464374542236 126.32158827781677 463.6303263902664 126.7217321395874Q462.8260090351105 127.12187600135803 462.15729999542236 127.12187600135803Q461.29253816604614 127.12187600135803 460.76616048812866 126.54179787635803Q460.2397828102112 125.96171975135803 460.2827515602112 125.05937600135803Q460.3686890602112 124.14358615875244 460.3686890602112 123.32183504104614Q460.3686890602112 122.50008392333984 460.3686890602112 121.47685122489929Q460.3686890602112 117.27130055427551 459.924240231514 113.65386629104614Q459.4797914028168 110.03643202781677 459.4797914028168 108.10555267333984Q459.4797914028168 106.85941696166992 460.1619255542755 106.31021869182587Q460.84405970573425 105.76102042198181 461.6577935218811 105.76102042198181Q463.54574608802795 105.76102042198181 463.9915521144867 107.56570792198181Q464.25742387771606 108.63992667198181 464.88450038433075 110.63394391536713Q465.51157689094543 112.62796115875244 467.1577935218811 116.0653772354126Q468.7369055747986 119.26652812957764 471.1659971475601 121.34784007072449Q473.59508872032166 123.42915201187134 476.3411010503769 124.4389386177063Q479.08711338043213 125.44872522354126 481.622353553772 125.44872522354126Q484.2031509876251 125.44872522354126 486.5999845266342 124.62425971031189Q488.9968180656433 123.79979419708252 490.5638202428818 121.65407109260559Q492.13082242012024 119.50834798812866 492.1147038936615 115.58754396438599Q492.09858536720276 112.23861193656921 490.0306775569916 109.68061411380768Q487.9627697467804 107.12261629104614 484.73067605495453 105.06011629104614Q481.49858236312866 102.99761629104614 478.00466752052307 101.23051071166992Q475.0640015602112 99.72660446166992 472.1515220403671 97.9903997182846Q469.23904252052307 96.25419497489929 466.83412873744965 94.04533398151398Q464.4292149543762 91.83647298812866 462.9521589279175 88.93205273151398Q461.47510290145874 86.02763247489929 461.4052839279175 82.19535446166992Q461.3005554676056 77.8824028968811 462.9253087043762 74.76313889026642Q464.55006194114685 71.64387488365173 467.26248002052307 69.65386629104614Q469.9748980998993 67.66385769844055 473.3077116012573 66.70509910583496Q476.64052510261536 65.74634051322937 479.95191717147827 65.74634051322937Q483.47806906700134 65.74634051322937 485.79704535007477 66.28747951984406Q488.1160216331482 66.82861852645874 489.5326541662216 67.38721227645874Q490.94928669929504 67.94580602645874 491.63682866096497 67.94580602645874Q492.67613792419434 67.94580602645874 493.0641928911209 67.55102801322937Q493.4522478580475 67.15625 494.0538103580475 66.76953125Q494.5264666080475 66.46875 495.22202587127686 66.46875Q496.1216971874237 66.46875 496.91797626018524 66.95886099338531Q497.7142553329468 67.44897198677063 497.7142553329468 68.1015625Q497.72231459617615 70.65012288093567 497.99758183956146 73.15442025661469Q498.2728490829468 75.6587176322937 498.5481163263321 77.80448269844055Q498.8233835697174 79.9502477645874 498.8233835697174 81.40575647354126Q498.8233835697174 82.75390625 498.1117057800293 83.291015625Q497.4000279903412 83.828125 496.50035667419434 83.828125Q495.82358837127686 83.828125 495.2555991411209 83.53540301322937Q494.68760991096497 83.24268102645874 494.5613760948181 82.83984375Q494.1773717403412 80.56266784667969 493.34891855716705 78.53244686126709Q492.5204653739929 76.50222587585449 491.2905111312866 74.80493927001953Q490.0605568885803 73.10765266418457 488.45862424373627 71.84673464298248Q486.8566915988922 70.5858166217804 484.90021431446075 69.89961087703705Q482.9437370300293 69.2134051322937 480.66626739501953 69.2134051322937Q477.77395701408386 69.2134051322937 475.4375259876251 70.1493011713028Q473.1010949611664 71.08519721031189 471.74622213840485 73.22016763687134Q470.3913493156433 75.35513806343079 470.3913493156433 79.02084398269653Q470.3913493156433 81.90785145759583 472.45789992809296 84.3100928068161Q474.5244505405426 86.71233415603638 477.73236644268036 88.78289341926575Q480.9402823448181 90.85345268249512 484.3133502006531 92.77092790603638Q487.2110893726349 94.41179966926575 490.2538323402405 96.24603080749512Q493.29657530784607 98.08026194572449 495.8948484659195 100.34821021556854Q498.4931216239929 102.6161584854126 500.1084793806076 105.47224414348602Q501.7238371372223 108.32832980155945 501.7238371372223 111.96994185447693Q501.7238371372223 117.53170156478882 499.0758512020111 121.40158247947693Q496.4278652667999 125.27146339416504 491.9912893772125 127.28026294708252Q487.5547134876251 129.2890625 482.1513407230377 129.2890625Z"/>

<rect class="qed" x="520" y="100" width="28" height="28" rx="2"/>
</svg>
